<svg width="160" height="161" viewBox="0 0 160 161" fill="none" xmlns="http://www.w3.org/2000/svg">
<path d="M79.9997 13.8333C43.1997 13.8333 13.333 43.6999 13.333 80.4999C13.333 117.3 43.1997 147.167 79.9997 147.167C116.8 147.167 146.666 117.3 146.666 80.4999C146.666 43.6999 116.8 13.8333 79.9997 13.8333ZM79.9997 87.1666C76.333 87.1666 73.333 84.1666 73.333 80.4999V53.8333C73.333 50.1666 76.333 47.1666 79.9997 47.1666C83.6663 47.1666 86.6663 50.1666 86.6663 53.8333V80.4999C86.6663 84.1666 83.6663 87.1666 79.9997 87.1666ZM86.6663 113.833H73.333V100.5H86.6663V113.833Z" fill="#F2D335"/>
</svg>
