<svg width="200" height="149" viewBox="0 0 200 149" fill="none" xmlns="http://www.w3.org/2000/svg">
<path d="M153.113 80.0511C152.685 78.4463 151.878 77.392 150.559 76.7309C149.534 76.2154 148.852 76.0348 148.098 76.0844C147.434 76.128 147.122 76.2678 146.72 76.696C146.132 77.3163 145.806 78.3007 145.73 79.6608C145.672 80.785 145.779 80.8986 145.989 79.9229C146.342 78.2221 147.131 77.6483 148.307 78.2133C150.241 79.1453 150.897 81.4665 149.81 83.5751C149.062 85.0313 146.601 85.9458 143.432 85.9545C140.464 85.9545 137.759 85.1361 135.12 83.4353C133.262 82.2412 131.188 80.1559 128.22 76.5037C123.715 70.9585 121.598 68.8761 118.717 67.1578C114.314 64.525 108.853 63.8376 104.735 65.4045C103.08 66.0423 101.677 67.0005 100.407 68.3693L99.5652 69.2664L98.7235 68.3693C96.3528 65.8152 93.2103 64.525 89.4795 64.5774C88.9931 64.5774 88.4892 64.6036 88.3436 64.6123C86.0166 64.8919 84.9565 65.1366 83.177 65.7977C81.5227 66.418 79.3442 67.7344 77.6317 69.1441C76.1522 70.3644 73.8427 72.8923 71.1603 76.1979C67.8402 80.2957 66.017 82.1422 63.9929 83.4411C62.126 84.644 60.2708 85.3691 57.9671 85.8031C56.7817 86.0215 54.4285 86.0041 53.2956 85.7594C51.1287 85.3051 49.7919 84.5391 49.2619 83.4586C48.624 82.1509 48.6736 80.52 49.3871 79.4395C49.8997 78.6648 50.9511 77.9832 51.6297 77.9832C52.3432 77.9832 52.882 78.6706 53.1412 79.92C53.2257 80.2957 53.3247 80.5986 53.3684 80.5986C53.5198 80.5986 53.3684 78.7754 53.1674 78.1143C52.5209 75.9533 51.0151 75.499 48.5716 76.728C47.2523 77.3891 46.4456 78.4463 46.0174 80.0481C45.7815 80.9277 45.764 82.9955 45.9825 83.9799C46.9232 88.3485 50.0744 91.6949 55.0314 93.6142C60.2155 95.6267 66.7539 95.749 75.8639 94.0161C78.2346 93.5618 79.7549 93.1803 81.7033 92.5337C87.2165 90.7018 92.5521 87.8272 96.3499 84.6352C97.3168 83.8256 98.7293 82.3606 99.1807 81.7053C99.3642 81.4345 99.5419 81.216 99.5681 81.2073C99.5943 81.2073 99.7516 81.417 99.9292 81.6791C100.331 82.2907 102.006 83.9974 103.005 84.8274C107.435 88.4883 114.407 91.9337 120.357 93.4045C122.626 93.9637 126.633 94.651 129.222 94.9306C134.322 95.4811 138.793 95.2452 142.264 94.2346C148.223 92.5075 152.079 88.864 153.139 83.9828C153.358 82.9984 153.34 80.9306 153.104 80.0511H153.113Z" fill="#F2D335"/>
<path d="M51.653 65.6055C52.1015 65.6288 52.5442 65.5123 52.8878 65.1686L55.9313 62.0727L58.2409 59.8826L62.5046 55.5256C63.1628 56.076 63.8589 56.5799 64.5899 57.0313C67.3567 58.7496 70.6128 59.7399 74.0961 59.7399C83.5789 59.7399 91.3813 52.4064 92.1589 43.0983C93.021 42.9702 93.2394 42.842 94.8645 42.5915C95.3393 42.5187 97.8876 42.2275 99.4778 42.2275C101.962 42.2275 104.406 42.743 106.797 43.1012C107.574 52.4093 115.377 59.7428 124.86 59.7428C128.343 59.7428 132.219 58.4264 134.369 57.0371C135.303 56.4314 136.201 55.779 137.022 55.0334C140.03 52.2957 142.113 48.6173 142.762 44.4147C142.777 44.3273 142.847 44.2604 142.937 44.2516L143.511 44.2108C143.656 44.1905 143.878 44.1235 143.878 43.8439L143.784 41.4062L143.878 39.2889C143.927 39.05 143.662 38.9452 143.511 38.9219L143.062 38.8869C142.899 38.8753 142.768 38.753 142.742 38.5899C142.282 35.8114 141.012 33.0068 139.69 31.1253C136.576 26.6926 130.981 23.387 124.857 23.387C115.467 23.387 107.723 30.5778 106.817 39.7578C104.417 39.4228 101.455 38.919 99.4749 38.919C97.4944 38.919 94.5325 39.4257 92.1327 39.7578C91.7832 36.2133 90.3386 32.6398 88.4048 30.4176C84.8837 26.3664 79.8568 23.387 74.0932 23.387C66.4568 23.387 60.3582 28.344 57.2419 34.862C56.7788 35.8318 56.4089 37.2822 56.1993 38.6452C56.1818 38.7501 56.1061 38.8316 56.0012 38.8549L55.4974 38.9161C55.2964 38.9161 55.1187 39.0384 55.1304 39.283C55.1595 39.8335 55.1683 41.1237 55.1624 41.6275C55.1566 42.0819 55.0547 43.2527 55.1304 43.8351C55.1566 44.0448 55.3576 44.1701 55.4974 44.2021L56.0041 44.2633C56.1031 44.2837 56.1818 44.3652 56.1963 44.4671C56.7118 47.7815 58.1156 50.7084 60.1689 53.1811L58.2205 55.1994L56.0303 57.3313L53.6771 59.8098L50.5521 62.8241C50.2463 63.1853 50.1298 63.7095 50.1094 64.0328C50.0861 64.4026 50.2696 64.8774 50.5521 65.1599C50.852 65.4599 51.254 65.5793 51.6471 65.5967L51.653 65.6055ZM110.082 40.3286C110.711 32.7097 117.101 26.6985 124.862 26.6985C130.181 26.6985 134.727 29.6021 137.473 33.7465C138.664 35.5464 139.695 38.7005 139.695 41.5664C139.695 46.0165 137.735 50.0153 134.634 52.7413C133.786 53.4869 132.851 54.1422 131.849 54.681C129.767 55.8023 127.388 56.4343 124.865 56.4343C120.654 56.4343 116.393 54.5237 114.145 51.8297C112.217 49.5173 110.644 46.8437 110.19 43.7245C110.085 43.0197 110.032 42.2974 110.032 41.5635C110.032 41.147 110.05 40.7334 110.085 40.3257L110.082 40.3286ZM59.266 41.5693C59.266 33.3708 65.9209 26.6985 74.099 26.6985C82.2771 26.6985 88.2504 32.7097 88.8795 40.3286C88.9145 40.7392 88.9319 41.1528 88.9319 41.5664C88.9319 42.3003 88.8795 43.0226 88.7747 43.7274C87.7291 50.9036 81.546 56.4372 74.099 56.4372C71.5768 56.4372 69.1974 55.8023 67.115 54.6839C66.1131 54.1451 65.1782 53.4898 64.3307 52.7442C61.229 50.0182 59.2689 46.0195 59.2689 41.5693H59.266Z" fill="#F2D335"/>
<g clip-path="url(#clip0_521_4754)">
<path d="M187.553 107.323V123.667H188.309L189.879 107.323H199.709L195.928 127.681L200 147.98H190.112L188.309 131.694H187.553V147.98H178.246V107.323H187.553Z" fill="#F2D335"/>
<path d="M167.522 107.323H176.829V148.039H166.708L162.578 123.667H162.055L164.091 148.039H154.784V107.323H164.905L169.267 131.869H169.791L167.522 107.323Z" fill="#F2D335"/>
<path d="M144.22 107.323H153.527V148.039H144.22V107.323Z" fill="#F2D335"/>
<path d="M128.316 107.323H137.622V139.954H143.322V148.039H128.316V107.323Z" fill="#F2D335"/>
<path d="M105.765 107.265H116.177C122.924 107.265 126.879 110.871 126.879 118.2V118.432C126.879 125.121 123.622 128.437 120.947 128.611V129.251C123.564 129.426 126.879 133.148 126.879 139.256V139.721C126.879 143.036 126.938 145.596 127.461 148.039H118.213C117.689 145.537 117.631 142.804 117.631 139.663V134.951C117.631 133.497 117.224 132.974 116.061 132.974H115.072V148.039H105.765V107.265ZM115.072 115.35V124.889H116.061C117.224 124.889 117.631 124.307 117.631 122.853V117.327C117.631 115.931 117.224 115.35 116.061 115.35H115.072Z" fill="#F2D335"/>
<path d="M104.527 115.408H98.8265V122.62H104.41V130.705H98.8265V139.954H104.585V148.039H89.52V107.323H104.527V115.408Z" fill="#F2D335"/>
<path d="M66.6856 107.323H76.9809C83.8444 107.323 87.7415 110.871 87.7415 117.327V117.618C87.7415 123.609 84.6005 126.75 81.8668 126.925V127.564C84.5424 127.681 88.4394 131.345 88.4394 137.278V137.976C88.4394 144.316 84.1352 148.039 77.039 148.039H66.6856V107.323ZM75.9921 115.35V123.202H76.8645C78.086 123.202 78.435 122.679 78.435 121.224V117.327C78.435 115.873 78.086 115.35 76.8645 115.35H75.9921ZM75.9921 131.287V139.954H76.9809C78.2023 139.954 78.6095 139.488 78.6095 137.976V133.265C78.6095 131.81 78.2023 131.287 76.9227 131.287H75.9921Z" fill="#F2D335"/>
<path d="M44.1352 107.265H54.5468C61.294 107.265 65.2492 110.871 65.2492 118.2V118.432C65.2492 125.121 61.9919 128.437 59.3163 128.611V129.251C61.9338 129.426 65.2492 133.148 65.2492 139.256V139.721C65.2492 143.036 65.3074 145.596 65.8308 148.039H56.5826C56.0591 145.537 56.0009 142.804 56.0009 139.663V134.951C56.0009 133.497 55.5938 132.974 54.4304 132.974H53.4416V148.039H44.1352V107.265ZM53.4416 115.35V124.889H54.4304C55.5938 124.889 56.0009 124.307 56.0009 122.853V117.327C56.0009 115.931 55.5938 115.35 54.4304 115.35H53.4416Z" fill="#F2D335"/>
<path d="M25.2383 107.265H39.7214L43.2113 148.039H33.9049L33.4396 138.79H31.3456L30.8803 148.039H21.5739L25.2383 107.265ZM31.6946 130.705H33.0324L32.6834 123.377H32.1018L31.6946 130.705Z" fill="#F2D335"/>
<path d="M0 107.323H10.2953C17.1588 107.323 21.0558 110.871 21.0558 117.327V117.618C21.0558 123.609 17.9149 126.75 15.1811 126.925V127.564C17.8567 127.681 21.7538 131.345 21.7538 137.278V137.976C21.7538 144.316 17.4496 148.039 10.3534 148.039H0V107.323ZM9.30645 115.35V123.202H10.1789C11.4004 123.202 11.7494 122.679 11.7494 121.224V117.327C11.7494 115.873 11.4004 115.35 10.1789 115.35H9.30645ZM9.30645 131.287V139.954H10.2953C11.5167 139.954 11.9239 139.488 11.9239 137.976V133.265C11.9239 131.81 11.5167 131.287 10.2371 131.287H9.30645Z" fill="#F2D335"/>
</g>
<defs>
<clipPath id="clip0_521_4754">
<rect width="200" height="40.7739" fill="white" transform="translate(0 107.265)"/>
</clipPath>
</defs>
</svg>
