<svg width="117" height="32" viewBox="0 0 117 32" fill="none" xmlns="http://www.w3.org/2000/svg">
<path d="M30.8961 21.7247C30.7785 21.2839 30.5569 20.9943 30.1945 20.8127C29.9129 20.6711 29.7257 20.6215 29.5185 20.6351C29.3361 20.6471 29.2505 20.6855 29.1401 20.8031C28.9785 20.9735 28.8889 21.2439 28.8681 21.6175C28.8521 21.9263 28.8817 21.9575 28.9393 21.6895C29.0361 21.2223 29.2529 21.0647 29.5761 21.2199C30.1073 21.4759 30.2873 22.1135 29.9889 22.6927C29.7833 23.0927 29.1073 23.3439 28.2369 23.3463C27.4217 23.3463 26.6785 23.1215 25.9537 22.6543C25.4433 22.3263 24.8737 21.7535 24.0585 20.7503C22.8209 19.2271 22.2393 18.6551 21.4481 18.1831C20.2385 17.4599 18.7385 17.2711 17.6073 17.7015C17.1529 17.8767 16.7673 18.1399 16.4185 18.5159L16.1873 18.7623L15.9561 18.5159C15.3049 17.8143 14.4417 17.4599 13.4169 17.4743C13.2833 17.4743 13.1449 17.4815 13.1049 17.4839C12.4657 17.5607 12.1745 17.6279 11.6857 17.8095C11.2313 17.9799 10.6329 18.3415 10.1625 18.7287C9.75611 19.0639 9.12171 19.7583 8.38491 20.6663C7.47291 21.7919 6.97211 22.2991 6.41611 22.6559C5.90331 22.9863 5.39371 23.1855 4.76091 23.3047C4.43531 23.3647 3.78891 23.3599 3.47771 23.2927C2.88251 23.1679 2.51531 22.9575 2.36971 22.6607C2.19451 22.3015 2.20811 21.8535 2.40411 21.5567C2.54491 21.3439 2.83371 21.1567 3.02011 21.1567C3.21611 21.1567 3.36411 21.3455 3.43531 21.6887C3.45851 21.7919 3.48571 21.8751 3.49771 21.8751C3.53931 21.8751 3.49771 21.3743 3.44251 21.1927C3.26491 20.5991 2.85131 20.4743 2.18011 20.8119C1.81771 20.9935 1.59611 21.2839 1.47851 21.7239C1.41371 21.9655 1.40891 22.5335 1.46891 22.8039C1.72731 24.0039 2.59291 24.9231 3.95451 25.4503C5.37851 26.0031 7.17451 26.0367 9.67691 25.5607C10.3281 25.4359 10.7457 25.3311 11.2809 25.1535C12.7953 24.6503 14.2609 23.8607 15.3041 22.9839C15.5697 22.7615 15.9577 22.3591 16.0817 22.1791C16.1321 22.1047 16.1809 22.0447 16.1881 22.0423C16.1953 22.0423 16.2385 22.0999 16.2873 22.1719C16.3977 22.3399 16.8577 22.8087 17.1321 23.0367C18.3489 24.0423 20.2641 24.9887 21.8985 25.3927C22.5217 25.5463 23.6225 25.7351 24.3337 25.8119C25.7345 25.9631 26.9625 25.8983 27.9161 25.6207C29.5529 25.1463 30.6121 24.1455 30.9033 22.8047C30.9633 22.5343 30.9585 21.9663 30.8937 21.7247H30.8961Z" fill="#F2D335"/>
<path d="M3.02611 17.7567C3.14931 17.7631 3.27091 17.7311 3.36531 17.6367L4.20131 16.7863L4.83571 16.1847L6.00691 14.9879C6.18771 15.1391 6.37891 15.2775 6.57971 15.4015C7.33971 15.8735 8.23411 16.1455 9.19091 16.1455C11.7957 16.1455 13.9389 14.1311 14.1525 11.5743C14.3893 11.5391 14.4493 11.5039 14.8957 11.4351C15.0261 11.4151 15.7261 11.3351 16.1629 11.3351C16.8453 11.3351 17.5165 11.4767 18.1733 11.5751C18.3869 14.1319 20.5301 16.1463 23.1349 16.1463C24.0917 16.1463 25.1565 15.7847 25.7469 15.4031C26.0037 15.2367 26.2501 15.0575 26.4757 14.8527C27.3021 14.1007 27.8741 13.0903 28.0525 11.9359C28.0565 11.9119 28.0757 11.8935 28.1005 11.8911L28.2581 11.8799C28.2981 11.8743 28.3589 11.8559 28.3589 11.7791L28.3333 11.1095L28.3589 10.5279C28.3725 10.4623 28.2997 10.4335 28.2581 10.4271L28.1349 10.4175C28.0901 10.4143 28.0541 10.3807 28.0469 10.3359C27.9205 9.57271 27.5717 8.80231 27.2085 8.28551C26.3533 7.06791 24.8165 6.15991 23.1341 6.15991C20.5549 6.15991 18.4277 8.13511 18.1789 10.6567C17.5197 10.5647 16.7061 10.4263 16.1621 10.4263C15.6181 10.4263 14.8045 10.5655 14.1453 10.6567C14.0493 9.68311 13.6525 8.70151 13.1213 8.09111C12.1541 6.97831 10.7733 6.15991 9.19011 6.15991C7.09251 6.15991 5.41731 7.52151 4.56131 9.31191C4.43411 9.57831 4.33251 9.97671 4.27491 10.3511C4.27011 10.3799 4.24931 10.4023 4.22051 10.4087L4.08211 10.4255C4.02691 10.4255 3.97811 10.4591 3.98131 10.5263C3.98931 10.6775 3.99171 11.0319 3.99011 11.1703C3.98851 11.2951 3.96051 11.6167 3.98131 11.7767C3.98851 11.8343 4.04371 11.8687 4.08211 11.8775L4.22131 11.8943C4.24851 11.8999 4.27011 11.9223 4.27411 11.9503C4.41571 12.8607 4.80131 13.6647 5.36531 14.3439L4.83011 14.8983L4.22851 15.4839L3.58211 16.1647L2.72371 16.9927C2.63971 17.0919 2.60771 17.2359 2.60211 17.3247C2.59571 17.4263 2.64611 17.5567 2.72371 17.6343C2.80611 17.7167 2.91651 17.7495 3.02451 17.7543L3.02611 17.7567ZM19.0757 10.8135C19.2485 8.72071 21.0037 7.06951 23.1357 7.06951C24.5965 7.06951 25.8453 7.86711 26.5997 9.00551C26.9269 9.49991 27.2101 10.3663 27.2101 11.1535C27.2101 12.3759 26.6717 13.4743 25.8197 14.2231C25.5869 14.4279 25.3301 14.6079 25.0549 14.7559C24.4829 15.0639 23.8293 15.2375 23.1365 15.2375C21.9797 15.2375 20.8093 14.7127 20.1917 13.9727C19.6621 13.3375 19.2301 12.6031 19.1053 11.7463C19.0765 11.5527 19.0621 11.3543 19.0621 11.1527C19.0621 11.0383 19.0669 10.9247 19.0765 10.8127L19.0757 10.8135ZM5.11731 11.1543C5.11731 8.90231 6.94531 7.06951 9.19171 7.06951C11.4381 7.06951 13.0789 8.72071 13.2517 10.8135C13.2613 10.9263 13.2661 11.0399 13.2661 11.1535C13.2661 11.3551 13.2517 11.5535 13.2229 11.7471C12.9357 13.7183 11.2373 15.2383 9.19171 15.2383C8.49891 15.2383 7.84531 15.0639 7.27331 14.7567C6.99811 14.6087 6.74131 14.4287 6.50851 14.2239C5.65651 13.4751 5.11811 12.3767 5.11811 11.1543H5.11731Z" fill="#F2D335"/>
<g clip-path="url(#clip0_519_3984)">
<path d="M111.712 7.86621V14.4058H112.014L112.643 7.86621H116.576L115.063 16.0117L116.692 24.1338H112.736L112.014 17.6175H111.712V24.1338H107.988V7.86621H111.712Z" fill="#F2D335"/>
<path d="M103.698 7.86621H107.422V24.1571H103.372L101.72 14.4058H101.511L102.325 24.1571H98.6016V7.86621H102.651L104.396 17.6873H104.606L103.698 7.86621Z" fill="#F2D335"/>
<path d="M94.375 7.86621H98.0986V24.1571H94.375V7.86621Z" fill="#F2D335"/>
<path d="M88.0107 7.86621H91.7344V20.9222H94.0151V24.1571H88.0107V7.86621Z" fill="#F2D335"/>
<path d="M78.9883 7.84302H83.1541C85.8537 7.84302 87.4363 9.28593 87.4363 12.2183V12.3114C87.4363 14.9877 86.133 16.3143 85.0625 16.3841V16.6401C86.1097 16.7099 87.4363 18.1994 87.4363 20.643V20.8292C87.4363 22.1557 87.4596 23.1797 87.669 24.1572H83.9686C83.7592 23.1565 83.7359 22.0627 83.7359 20.8059V18.9208C83.7359 18.339 83.573 18.1296 83.1076 18.1296H82.7119V24.1572H78.9883V7.84302ZM82.7119 11.0779V14.8947H83.1076C83.573 14.8947 83.7359 14.6619 83.7359 14.0801V11.8692C83.7359 11.3107 83.573 11.0779 83.1076 11.0779H82.7119Z" fill="#F2D335"/>
<path d="M78.4926 11.1011H76.2119V13.9869H78.4461V17.2218H76.2119V20.9222H78.5159V24.1571H72.4883V7.86621H78.4926V11.1011Z" fill="#F2D335"/>
<path d="M63.3516 7.86621H67.4708C70.217 7.86621 71.7763 9.28585 71.7763 11.8691V11.9855C71.7763 14.3826 70.5196 15.6393 69.4257 15.7091V15.9651C70.4963 16.0117 72.0556 17.4778 72.0556 19.8517V20.1309C72.0556 22.6677 70.3334 24.1571 67.4941 24.1571H63.3516V7.86621ZM67.0752 11.0778V14.2197H67.4243C67.913 14.2197 68.0527 14.0102 68.0527 13.4284V11.8691C68.0527 11.2873 67.913 11.0778 67.4243 11.0778H67.0752ZM67.0752 17.4546V20.9222H67.4708C67.9596 20.9222 68.1225 20.736 68.1225 20.1309V18.2458C68.1225 17.664 67.9596 17.4546 67.4476 17.4546H67.0752Z" fill="#F2D335"/>
<path d="M54.3291 7.84302H58.4949C61.1946 7.84302 62.7771 9.28593 62.7771 12.2183V12.3114C62.7771 14.9877 61.4738 16.3143 60.4033 16.3841V16.6401C61.4506 16.7099 62.7771 18.1994 62.7771 20.643V20.8292C62.7771 22.1557 62.8004 23.1797 63.0098 24.1572H59.3095C59.1 23.1565 59.0767 22.0627 59.0767 20.8059V18.9208C59.0767 18.339 58.9138 18.1296 58.4484 18.1296H58.0527V24.1572H54.3291V7.84302ZM58.0527 11.0779V14.8947H58.4484C58.9138 14.8947 59.0767 14.6619 59.0767 14.0801V11.8692C59.0767 11.3107 58.9138 11.0779 58.4484 11.0779H58.0527Z" fill="#F2D335"/>
<path d="M46.7679 7.84302H52.5628L53.9592 24.1572H50.2356L50.0494 20.4568H49.2116L49.0254 24.1572H45.3018L46.7679 7.84302ZM49.3512 17.2219H49.8865L49.7468 14.2896H49.5141L49.3512 17.2219Z" fill="#F2D335"/>
<path d="M36.6699 7.86621H40.7892C43.5354 7.86621 45.0946 9.28585 45.0946 11.8691V11.9855C45.0946 14.3826 43.8379 15.6393 42.7441 15.7091V15.9651C43.8146 16.0117 45.3739 17.4778 45.3739 19.8517V20.1309C45.3739 22.6677 43.6517 24.1571 40.8125 24.1571H36.6699V7.86621ZM40.3936 11.0778V14.2197H40.7426C41.2314 14.2197 41.371 14.0102 41.371 13.4284V11.8691C41.371 11.2873 41.2314 11.0778 40.7426 11.0778H40.3936ZM40.3936 17.4546V20.9222H40.7892C41.2779 20.9222 41.4408 20.736 41.4408 20.1309V18.2458C41.4408 17.664 41.2779 17.4546 40.7659 17.4546H40.3936Z" fill="#F2D335"/>
</g>
<defs>
<clipPath id="clip0_519_3984">
<rect width="80.0227" height="16.3142" fill="white" transform="translate(36.6699 7.84302)"/>
</clipPath>
</defs>
</svg>
