<svg width="200" height="200" viewBox="0 0 200 200" fill="none" xmlns="http://www.w3.org/2000/svg">
<path d="M191.183 135.78C190.448 133.025 189.063 131.215 186.798 130.08C185.038 129.195 183.868 128.885 182.573 128.97C181.433 129.045 180.898 129.285 180.208 130.02C179.198 131.085 178.638 132.775 178.508 135.11C178.408 137.04 178.593 137.235 178.953 135.56C179.558 132.64 180.913 131.655 182.933 132.625C186.253 134.225 187.378 138.21 185.513 141.83C184.228 144.33 180.003 145.9 174.563 145.915C169.468 145.915 164.823 144.51 160.293 141.59C157.103 139.54 153.543 135.96 148.448 129.69C140.713 120.17 137.078 116.595 132.133 113.645C124.573 109.125 115.198 107.945 108.128 110.635C105.288 111.73 102.878 113.375 100.698 115.725L99.2535 117.265L97.8085 115.725C93.7385 111.34 88.3435 109.125 81.9385 109.215C81.1035 109.215 80.2385 109.26 79.9885 109.275C75.9935 109.755 74.1735 110.175 71.1185 111.31C68.2785 112.375 64.5385 114.635 61.5985 117.055C59.0585 119.15 55.0935 123.49 50.4885 129.165C44.7885 136.2 41.6585 139.37 38.1835 141.6C34.9785 143.665 31.7935 144.91 27.8385 145.655C25.8035 146.03 21.7635 146 19.8185 145.58C16.0985 144.8 13.8035 143.485 12.8935 141.63C11.7985 139.385 11.8835 136.585 13.1085 134.73C13.9885 133.4 15.7935 132.23 16.9585 132.23C18.1835 132.23 19.1085 133.41 19.5535 135.555C19.6985 136.2 19.8685 136.72 19.9435 136.72C20.2035 136.72 19.9435 133.59 19.5985 132.455C18.4885 128.745 15.9035 127.965 11.7085 130.075C9.44347 131.21 8.05847 133.025 7.32347 135.775C6.91847 137.285 6.88847 140.835 7.26347 142.525C8.87847 150.025 14.2885 155.77 22.7985 159.065C31.6985 162.52 42.9235 162.73 58.5635 159.755C62.6335 158.975 65.2435 158.32 68.5885 157.21C78.0535 154.065 87.2135 149.13 93.7335 143.65C95.3935 142.26 97.8185 139.745 98.5935 138.62C98.9085 138.155 99.2135 137.78 99.2585 137.765C99.3035 137.765 99.5735 138.125 99.8785 138.575C100.568 139.625 103.443 142.555 105.158 143.98C112.763 150.265 124.733 156.18 134.948 158.705C138.843 159.665 145.723 160.845 150.168 161.325C158.923 162.27 166.598 161.865 172.558 160.13C182.788 157.165 189.408 150.91 191.228 142.53C191.603 140.84 191.573 137.29 191.168 135.78H191.183Z" fill="#F2D335"/>
<path d="M16.9985 110.98C17.7685 111.02 18.5285 110.82 19.1185 110.23L24.3435 104.915L28.3085 101.155L35.6285 93.675C36.7585 94.62 37.9535 95.485 39.2085 96.26C43.9585 99.21 49.5485 100.91 55.5285 100.91C71.8085 100.91 85.2035 88.32 86.5385 72.34C88.0185 72.12 88.3935 71.9 91.1835 71.47C91.9985 71.345 96.3735 70.845 99.1035 70.845C103.369 70.845 107.564 71.73 111.669 72.345C113.004 88.325 126.399 100.915 142.679 100.915C148.659 100.915 155.314 98.655 159.004 96.27C160.609 95.23 162.149 94.11 163.559 92.83C168.724 88.13 172.299 81.815 173.414 74.6C173.439 74.45 173.559 74.335 173.714 74.32L174.699 74.25C174.949 74.215 175.329 74.1 175.329 73.62L175.169 69.435L175.329 65.8C175.414 65.39 174.959 65.21 174.699 65.17L173.929 65.11C173.649 65.09 173.424 64.88 173.379 64.6C172.589 59.83 170.409 55.015 168.139 51.785C162.794 44.175 153.189 38.5 142.674 38.5C126.554 38.5 113.259 50.845 111.704 66.605C107.584 66.03 102.499 65.165 99.0985 65.165C95.6985 65.165 90.6135 66.035 86.4935 66.605C85.8935 60.52 83.4135 54.385 80.0935 50.57C74.0485 43.615 65.4185 38.5 55.5235 38.5C42.4135 38.5 31.9435 47.01 26.5935 58.2C25.7985 59.865 25.1635 62.355 24.8035 64.695C24.7735 64.875 24.6435 65.015 24.4635 65.055L23.5985 65.16C23.2535 65.16 22.9485 65.37 22.9685 65.79C23.0185 66.735 23.0335 68.95 23.0235 69.815C23.0135 70.595 22.8385 72.605 22.9685 73.605C23.0135 73.965 23.3585 74.18 23.5985 74.235L24.4685 74.34C24.6385 74.375 24.7735 74.515 24.7985 74.69C25.6835 80.38 28.0935 85.405 31.6185 89.65L28.2735 93.115L24.5135 96.775L20.4735 101.03L15.1085 106.205C14.5835 106.825 14.3835 107.725 14.3485 108.28C14.3085 108.915 14.6235 109.73 15.1085 110.215C15.6235 110.73 16.3135 110.935 16.9885 110.965L16.9985 110.98ZM117.309 67.585C118.389 54.505 129.359 44.185 142.684 44.185C151.814 44.185 159.619 49.17 164.334 56.285C166.379 59.375 168.149 64.79 168.149 69.71C168.149 77.35 164.784 84.215 159.459 88.895C158.004 90.175 156.399 91.3 154.679 92.225C151.104 94.15 147.019 95.235 142.689 95.235C135.459 95.235 128.144 91.955 124.284 87.33C120.974 83.36 118.274 78.77 117.494 73.415C117.314 72.205 117.224 70.965 117.224 69.705C117.224 68.99 117.254 68.28 117.314 67.58L117.309 67.585ZM30.0685 69.715C30.0685 55.64 41.4935 44.185 55.5335 44.185C69.5735 44.185 79.8285 54.505 80.9085 67.585C80.9685 68.29 80.9985 69 80.9985 69.71C80.9985 70.97 80.9085 72.21 80.7285 73.42C78.9335 85.74 68.3185 95.24 55.5335 95.24C51.2035 95.24 47.1185 94.15 43.5435 92.23C41.8235 91.305 40.2185 90.18 38.7635 88.9C33.4385 84.22 30.0735 77.355 30.0735 69.715H30.0685Z" fill="#F2D335"/>
</svg>
