<svg width="18" height="19" viewBox="0 0 18 19" fill="none" xmlns="http://www.w3.org/2000/svg">
<path d="M3.75 7.94214C3.75 11.581 6.93336 14.5902 8.34239 15.7439C8.54405 15.909 8.64608 15.9926 8.79653 16.0349C8.91368 16.0679 9.0861 16.0679 9.20325 16.0349C9.35398 15.9925 9.4553 15.9098 9.65771 15.744C11.0668 14.5903 14.2499 11.5813 14.2499 7.94247C14.2499 6.56539 13.6968 5.24454 12.7123 4.27079C11.7277 3.29705 10.3924 2.75 9.00006 2.75C7.60767 2.75 6.27226 3.29713 5.28769 4.27087C4.30312 5.24462 3.75 6.56505 3.75 7.94214Z" stroke="#CDCDCD" stroke-width="1.5" stroke-linecap="round" stroke-linejoin="round"/>
<path d="M7.5 7.25C7.5 8.07843 8.17157 8.75 9 8.75C9.82843 8.75 10.5 8.07843 10.5 7.25C10.5 6.42157 9.82843 5.75 9 5.75C8.17157 5.75 7.5 6.42157 7.5 7.25Z" stroke="#CDCDCD" stroke-width="1.5" stroke-linecap="round" stroke-linejoin="round"/>
</svg>
